<svg width="49" height="40" viewBox="0 0 49 40" fill="none" xmlns="http://www.w3.org/2000/svg">
<g clip-path="url(#clip0_1479_12010)">
<path fill-rule="evenodd" clip-rule="evenodd" d="M46.417 38.6667C46.417 38.6667 49.5003 38.6667 49.5003 35.5556C49.5003 32.4445 46.417 23.1112 34.0837 23.1112C21.7503 23.1112 18.667 32.4445 18.667 35.5556C18.667 38.6667 21.7503 38.6667 21.7503 38.6667H46.417ZM21.8182 35.5556H46.3492C46.3636 35.5539 46.378 35.5518 46.3923 35.5494L46.417 35.5432C46.4108 34.7218 45.9021 32.3387 44.0737 30.192C42.3717 28.1791 39.3808 26.2223 34.0837 26.2223C28.7896 26.2223 25.7987 28.1823 24.0937 30.192C22.2652 32.3387 21.7534 34.7249 21.7503 35.5432C21.7729 35.5475 21.7955 35.5517 21.8182 35.5556ZM34.0837 16.8889C35.7192 16.8889 37.2877 16.2334 38.4441 15.0665C39.6006 13.8996 40.2503 12.3169 40.2503 10.6667C40.2503 9.01647 39.6006 7.43382 38.4441 6.26693C37.2877 5.10004 35.7192 4.44448 34.0837 4.44448C32.4482 4.44448 30.8796 5.10004 29.7232 6.26693C28.5667 7.43382 27.917 9.01647 27.917 10.6667C27.917 12.3169 28.5667 13.8996 29.7232 15.0665C30.8796 16.2334 32.4482 16.8889 34.0837 16.8889ZM43.3337 10.6667C43.3337 11.8924 43.0944 13.106 42.6295 14.2384C42.1647 15.3708 41.4833 16.3997 40.6244 17.2664C39.7655 18.133 38.7457 18.8205 37.6235 19.2896C36.5012 19.7586 35.2984 20 34.0837 20C32.8689 20 31.6661 19.7586 30.5438 19.2896C29.4216 18.8205 28.4019 18.133 27.5429 17.2664C26.684 16.3997 26.0026 15.3708 25.5378 14.2384C25.0729 13.106 24.8337 11.8924 24.8337 10.6667C24.8337 8.19135 25.8082 5.81738 27.5429 4.06704C29.2776 2.3167 31.6304 1.33337 34.0837 1.33337C36.5369 1.33337 38.8897 2.3167 40.6244 4.06704C42.3591 5.81738 43.3337 8.19135 43.3337 10.6667ZM21.553 23.9823C20.3196 23.5904 19.0482 23.3328 17.7605 23.2138C17.0369 23.1444 16.3105 23.1101 15.5837 23.1112C3.25033 23.1112 0.166992 32.4445 0.166992 35.5556C0.166992 37.6307 1.19374 38.6667 3.25033 38.6667H16.2497C15.7926 37.6955 15.5646 36.6306 15.5837 35.5556C15.5837 32.4134 16.7461 29.2027 18.9445 26.5209C19.6937 25.6063 20.5663 24.7507 21.553 23.9823ZM15.337 26.2223C10.194 26.2845 7.27408 28.2134 5.59366 30.192C3.75291 32.3512 3.25033 34.7436 3.25033 35.5556H12.5003C12.5003 32.3045 13.4962 29.0658 15.337 26.2223ZM4.79199 12.2223C4.79199 9.74691 5.76654 7.37294 7.50125 5.6226C9.23597 3.87226 11.5887 2.88893 14.042 2.88893C16.4952 2.88893 18.848 3.87226 20.5827 5.6226C22.3174 7.37294 23.292 9.74691 23.292 12.2223C23.292 14.6976 22.3174 17.0716 20.5827 18.8219C18.848 20.5723 16.4952 21.5556 14.042 21.5556C11.5887 21.5556 9.23597 20.5723 7.50125 18.8219C5.76654 17.0716 4.79199 14.6976 4.79199 12.2223ZM14.042 6.00004C12.4065 6.00004 10.838 6.65559 9.6815 7.82249C8.52503 8.98938 7.87533 10.572 7.87533 12.2223C7.87533 13.8725 8.52503 15.4551 9.6815 16.622C10.838 17.7889 12.4065 18.4445 14.042 18.4445C15.6775 18.4445 17.246 17.7889 18.4025 16.622C19.559 15.4551 20.2087 13.8725 20.2087 12.2223C20.2087 10.572 19.559 8.98938 18.4025 7.82249C17.246 6.65559 15.6775 6.00004 14.042 6.00004Z" fill="white"/>
</g>
<defs>
<clipPath id="clip0_1479_12010">
<rect width="48" height="39.5295" fill="white" transform="translate(0.5)"/>
</clipPath>
</defs>
</svg>
